<svg xmlns="http://www.w3.org/2000/svg" xmlns:xlink="http://www.w3.org/1999/xlink" width="200" zoomAndPan="magnify" viewBox="0 0 150 60" height="80" preserveAspectRatio="xMidYMid meet" version="1.0"><defs><g/><clipPath id="ec88d6ac6c"><path d="M 4.949219 6.789062 L 51.449219 6.789062 L 51.449219 53.289062 L 4.949219 53.289062 Z M 4.949219 6.789062 " clip-rule="nonzero"/></clipPath></defs><g clip-path="url(#ec88d6ac6c)"><path fill="#2b2a4c" d="M 45.234375 53.296875 L 11.175781 53.296875 C 7.738281 53.296875 4.949219 50.511719 4.949219 47.074219 L 4.949219 13.011719 C 4.949219 9.574219 7.738281 6.789062 11.175781 6.789062 L 45.234375 6.789062 C 48.675781 6.789062 51.460938 9.574219 51.460938 13.011719 L 51.460938 47.074219 C 51.460938 50.511719 48.675781 53.296875 45.234375 53.296875 Z M 45.234375 53.296875 " fill-opacity="1" fill-rule="nonzero"/></g><g fill="#ffffff" fill-opacity="1"><g transform="translate(15.973749, 41.37427)"><g><path d="M 6.082031 0.511719 C 9.675781 2.457031 16.417969 1.757812 19.386719 -1.246094 C 23.453125 -5.3125 23.269531 -13.632812 23.269531 -22.828125 C 23.269531 -25.359375 22.71875 -26.605469 21.144531 -27.851562 C 20.007812 -28.730469 17.589844 -28.804688 15.539062 -28.105469 C 13.191406 -27.300781 12.863281 -25.652344 13.15625 -23.085938 C 13.707031 -18.324219 14.769531 -9.382812 12.570312 -7.4375 C 10.515625 -5.679688 8.757812 -6.890625 9.015625 -9.859375 C 9.417969 -14.511719 1.097656 -15.023438 1.097656 -9.015625 C 1.097656 -5.386719 3.003906 -1.210938 6.082031 0.511719 Z M 6.082031 0.511719 "/></g></g></g><g fill="#ffffff" fill-opacity="1"><g transform="translate(52.309241, 36.946899)"><g><path d="M 5.347656 0.351562 C 9.960938 2.304688 14.546875 -0.625 15.683594 -4.53125 C 16.796875 -8.359375 15.550781 -13.1875 11.179688 -15.007812 C 1.03125 -18.996094 -3.09375 -3.230469 5.347656 0.351562 Z M 6.648438 -5.96875 C 6.351562 -7.515625 6.484375 -9.796875 7.816406 -11.042969 C 9.390625 -12.484375 10.964844 -10.5 11.234375 -9.226562 C 11.667969 -7.707031 11.53125 -5.617188 10.3125 -4.367188 C 8.601562 -2.714844 7 -4.289062 6.648438 -5.96875 Z M 6.648438 -5.96875 "/></g></g><g transform="translate(69.188032, 36.946899)"><g><path d="M 3.609375 0.839844 C 5.320312 1.140625 7.054688 0.679688 7.761719 -0.460938 C 14.410156 1.25 17.773438 -2.550781 17.175781 -8.4375 C 16.660156 -13.675781 10.066406 -13.542969 8.113281 -13.105469 C 8.085938 -14.355469 8.03125 -15.710938 7.976562 -17.230469 C 7.949219 -18.019531 8.058594 -18.804688 7.921875 -19.484375 C 7.707031 -20.515625 7.027344 -21.140625 6.214844 -21.382812 C 4.855469 -21.789062 2.414062 -21.734375 1.4375 -20.894531 C 0.761719 -20.324219 0.8125 -18.722656 0.839844 -16.554688 C 0.867188 -14.328125 1.085938 -12.046875 1.113281 -9.851562 C 1.03125 -4.289062 1.058594 -1.871094 1.25 -0.761719 C 1.410156 0.21875 2.226562 0.597656 3.609375 0.839844 Z M 8.277344 -8.683594 C 12.101562 -9.117188 12.808594 -7.816406 12.589844 -6.296875 C 12.402344 -4.855469 9.960938 -4.476562 8.359375 -4.804688 C 8.359375 -5.808594 8.332031 -7.082031 8.277344 -8.683594 Z M 8.277344 -8.683594 "/></g></g><g transform="translate(87.233685, 36.946899)"><g><path d="M 8.765625 1.003906 C 11.53125 0.761719 14.164062 -0.894531 14.246094 -4.179688 C 14.355469 -7.054688 11.667969 -8.601562 8.902344 -9.714844 C 8.195312 -10.066406 6.023438 -10.664062 6.59375 -11.804688 C 7.949219 -14.164062 10.339844 -9.796875 12.945312 -10.609375 C 14.273438 -10.910156 14.816406 -12.292969 14.191406 -13.40625 C 13 -15.847656 10.367188 -16.796875 7.433594 -16.878906 C 4.042969 -16.769531 1.464844 -14.953125 1.410156 -11.804688 C 1.410156 -8.546875 3.773438 -8.003906 6.269531 -6.703125 C 7.082031 -6.296875 9.144531 -5.671875 8.359375 -4.34375 C 7.433594 -3.039062 6.1875 -4.042969 5.046875 -4.75 C 4.152344 -5.589844 3.148438 -6.132812 1.683594 -5.238281 C 0.488281 -4.476562 0.679688 -2.714844 1.355469 -1.683594 C 2.875 0.488281 6.050781 1.300781 8.765625 1.003906 Z M 8.765625 1.003906 "/></g></g><g transform="translate(102.511434, 36.946899)"><g><path d="M 10.988281 1.355469 C 12.917969 1.355469 12.972656 -3.335938 11.398438 -3.335938 C 8.953125 -3.335938 8.65625 -5.78125 8.792969 -10.554688 L 9.117188 -10.554688 C 9.523438 -10.554688 9.878906 -10.582031 10.230469 -10.636719 C 10.582031 -10.664062 10.882812 -10.800781 11.125 -11.015625 C 11.371094 -11.207031 11.558594 -11.558594 11.695312 -12.019531 C 11.777344 -12.292969 11.804688 -12.535156 11.804688 -12.753906 C 11.804688 -13.269531 11.613281 -13.785156 11.207031 -14.246094 C 10.800781 -14.707031 10.203125 -14.925781 9.417969 -14.925781 L 8.929688 -14.925781 C 8.953125 -15.332031 8.953125 -15.765625 8.980469 -16.199219 C 9.035156 -17.828125 9.171875 -18.996094 8.847656 -19.621094 C 8.25 -20.757812 6.105469 -20.597656 4.964844 -20.269531 C 4.289062 -20.082031 3.691406 -19.621094 3.527344 -18.859375 C 3.417969 -18.34375 3.5 -17.746094 3.472656 -17.148438 C 3.445312 -16.363281 3.390625 -15.601562 3.363281 -14.925781 L 3.121094 -14.925781 C 2.386719 -14.925781 1.816406 -14.707031 1.382812 -14.300781 C 1.003906 -13.949219 0.8125 -13.488281 0.8125 -12.863281 C 0.8125 -12.128906 1.085938 -11.53125 1.628906 -11.070312 C 2.035156 -10.71875 2.550781 -10.554688 3.175781 -10.554688 L 3.203125 -10.554688 C 3.148438 -9.199219 3.148438 -8.167969 3.148438 -7.382812 C 3.257812 -0.109375 7.109375 1.355469 10.988281 1.355469 Z M 10.988281 1.355469 "/></g></g><g transform="translate(115.835367, 36.946899)"><g><path d="M 7.246094 0.136719 C 9.660156 0.625 13.785156 0.460938 15.847656 -1.4375 C 16.632812 -2.171875 16.714844 -3.3125 16.117188 -4.097656 C 15.222656 -5.371094 14.4375 -5.507812 13.078125 -4.777344 C 10.609375 -3.746094 8.386719 -3.335938 7.355469 -6.269531 C 11.097656 -5.96875 17.53125 -6.945312 17.691406 -9.960938 C 18.207031 -19.726562 3.851562 -19.320312 1.195312 -10.636719 C -0.269531 -5.835938 2.632812 -0.785156 7.246094 0.136719 Z M 7.355469 -9.605469 C 7.355469 -13.160156 13.460938 -13.566406 13.460938 -10.691406 C 13.460938 -9.171875 7.355469 -9.605469 7.355469 -9.605469 Z M 7.355469 -9.605469 "/></g></g><g transform="translate(134.342337, 36.946899)"><g><path d="M 3.527344 0.269531 C 5.15625 0.542969 6.785156 -0.0546875 7.273438 -1.410156 C 7.542969 -2.144531 7.652344 -3.203125 7.570312 -5.78125 C 7.460938 -8.980469 7.921875 -10.339844 9.28125 -10.394531 L 9.363281 -10.394531 C 9.6875 -10.394531 9.984375 -10.339844 10.175781 -10.148438 C 10.367188 -9.984375 10.5 -9.714844 10.554688 -9.46875 L 10.910156 -8.058594 C 10.964844 -6.8125 14.21875 -6.945312 14.570312 -8.03125 C 15.847656 -11.804688 12.589844 -15.875 9.578125 -15.875 C 8.195312 -15.875 7.789062 -15.65625 6.839844 -14.925781 C 6.511719 -16.226562 2.496094 -16.308594 1.410156 -15.167969 C 0.515625 -14.21875 0.867188 -12.835938 0.976562 -10.339844 C 1.25 -4.777344 1.195312 -2.359375 1.382812 -1.25 C 1.574219 -0.296875 2.304688 0.0820312 3.527344 0.269531 Z M 3.527344 0.269531 "/></g></g></g></svg>